{
  "asset": {
    "version": "2.0"
  },
  "scene": 0,
  "scenes": [
    {
      "nodes": [
        0
      ]
    }
  ],
  "nodes": [
    {
      "name": "AvatarNode",
      "mesh": 0
    }
  ],
  "meshes": [
    {
      "name": "AvatarMesh",
      "primitives": [
        {
          "attributes": {
            "POSITION": 0,
            "NORMAL": 1,
            "TEXCOORD_0": 2
          },
          "indices": 3,
          "material": 0
        }
      ]
    }
  ],
  "materials": [
    {
      "name": "AvatarMaterial",
      "pbrMetallicRoughness": {
        "baseColorFactor": [
          0.2,
          0.7,
          0.9,
          1.0
        ],
        "metallicFactor": 0.2,
        "roughnessFactor": 0.4
      }
    }
  ],
  "buffers": [
    {
      "byteLength": 500,
      "uri": "data:application/octet-stream;base64,"
    }
  ],
  "bufferViews": [
    {
      "buffer": 0,
      "byteOffset": 0,
      "byteLength": 156,
      "target": 34962
    },
    {
      "buffer": 0,
      "byteOffset": 156,
      "byteLength": 156,
      "target": 34962
    },
    {
      "buffer": 0,
      "byteOffset": 312,
      "byteLength": 104,
      "target": 34962
    },
    {
      "buffer": 0,
      "byteOffset": 416,
      "byteLength": 84,
      "target": 34963
    }
  ],
  "accessors": [
    {
      "bufferView": 0,
      "byteOffset": 0,
      "componentType": 5126,
      "count": 13,
      "type": "VEC3",
      "max": [
        0.4,
        1.2,
        0.3
      ],
      "min": [
        -0.4,
        -0.6,
        -0.3
      ]
    },
    {
      "bufferView": 1,
      "byteOffset": 0,
      "componentType": 5126,
      "count": 13,
      "type": "VEC3"
    },
    {
      "bufferView": 2,
      "byteOffset": 0,
      "componentType": 5126,
      "count": 13,
      "type": "VEC2"
    },
    {
      "bufferView": 3,
      "byteOffset": 0,
      "componentType": 5123,
      "count": 42,
      "type": "SCALAR"
    }
  ]
}